<svg xmlns="http://www.w3.org/2000/svg" viewBox="0 0 1120 560">
  <defs>
    <style>
      .node { rx: 18; ry: 18; stroke-width: 2; fill: #f9fafb; }
      .label { font-family: "Inter", "Segoe UI", sans-serif; font-size: 18px; font-weight: 500; fill: #111827; }
    </style>
    <marker id="arrow-blue" markerWidth="12" markerHeight="12" refX="10" refY="6" orient="auto">
      <path d="M0,0 L12,6 L0,12 z" fill="#2563eb" />
    </marker>
  </defs>

  <!-- Flow nodes -->
  <rect class="node" x="70" y="60" width="200" height="70" stroke="#2563eb" />
  <text class="label" x="170" y="105" text-anchor="middle">⚡ Тест</text>

  <rect class="node" x="70" y="170" width="200" height="70" stroke="#2563eb" />
  <text class="label" x="170" y="215" text-anchor="middle">📝 Вопросы квиза</text>

  <rect class="node" x="70" y="280" width="200" height="70" stroke="#2563eb" />
  <text class="label" x="170" y="325" text-anchor="middle">📊 Подсчёт баллов</text>

  <rect class="node" x="330" y="280" width="200" height="70" stroke="#16a34a" />
  <text class="label" x="430" y="325" text-anchor="middle">💡 AI-совет</text>

  <rect class="node" x="590" y="280" width="200" height="70" stroke="#f97316" />
  <text class="label" x="690" y="325" text-anchor="middle">🛍 Рекомендации</text>

  <rect class="node" x="850" y="280" width="200" height="70" stroke="#4b5563" />
  <text class="label" x="950" y="325" text-anchor="middle">🖼️ Медиагруппа</text>

  <rect class="node" x="850" y="390" width="200" height="70" stroke="#4b5563" />
  <text class="label" x="950" y="435" text-anchor="middle">🎯 CTA и кнопки</text>

  <rect class="node" x="850" y="170" width="200" height="70" stroke="#7c3aed" />
  <text class="label" x="950" y="215" text-anchor="middle">💎 Апселл</text>

  <rect class="node" x="850" y="60" width="200" height="70" stroke="#2563eb" />
  <text class="label" x="950" y="105" text-anchor="middle">🏠 Домой</text>

  <rect class="node" x="330" y="120" width="200" height="70" stroke="#dc2626" />
  <text class="label" x="430" y="165" text-anchor="middle">⏰ Напоминание</text>

  <!-- Edges -->
  <path d="M170 130 L170 170" fill="none" stroke="#2563eb" stroke-width="2" marker-end="url(#arrow-blue)" />
  <path d="M170 240 L170 280" fill="none" stroke="#2563eb" stroke-width="2" marker-end="url(#arrow-blue)" />
  <path d="M270 315 L330 315" fill="none" stroke="#2563eb" stroke-width="2" marker-end="url(#arrow-blue)" />
  <path d="M530 315 L590 315" fill="none" stroke="#2563eb" stroke-width="2" marker-end="url(#arrow-blue)" />
  <path d="M790 315 L850 315" fill="none" stroke="#2563eb" stroke-width="2" marker-end="url(#arrow-blue)" />
  <path d="M950 350 L950 390" fill="none" stroke="#2563eb" stroke-width="2" marker-end="url(#arrow-blue)" />
  <path d="M950 390 L950 240" fill="none" stroke="#2563eb" stroke-width="2" marker-end="url(#arrow-blue)" />
  <path d="M950 170 L950 130" fill="none" stroke="#2563eb" stroke-width="2" marker-end="url(#arrow-blue)" />
  <path d="M950 390 L1020 390 L1020 130 L950 130" fill="none" stroke="#2563eb" stroke-width="2" marker-end="url(#arrow-blue)" />
  <path d="M170 210 L330 210 L330 190" fill="none" stroke="#2563eb" stroke-width="2" marker-end="url(#arrow-blue)" />
  <path d="M430 190 L430 220 L170 220" fill="none" stroke="#2563eb" stroke-width="2" marker-end="url(#arrow-blue)" />
</svg>
